<svg width="33" height="32" viewBox="0 0 33 32" fill="none" xmlns="http://www.w3.org/2000/svg">
<path d="M22.4989 16.9062H10.5632C10.1056 16.9062 9.73438 17.2774 9.73438 17.7351V23.8226C9.7353 24.626 10.0549 25.3963 10.6229 25.9643C11.1912 26.5323 11.9612 26.8519 12.7647 26.8529H20.2973C21.1007 26.852 21.8709 26.5323 22.4391 25.9643C23.0071 25.3963 23.3267 24.626 23.3277 23.8226V17.7286C23.324 17.2735 22.9541 16.9062 22.4989 16.9062ZM21.6701 23.8226C21.6691 24.1863 21.5241 24.5348 21.267 24.792C21.0098 25.0494 20.6613 25.1942 20.2975 25.1951H12.7649C12.4011 25.1942 12.0526 25.0494 11.7954 24.792C11.5382 24.5349 11.3932 24.1864 11.3923 23.8226V18.5642H21.6702L21.6701 23.8226Z" fill="#F8F5EF" stroke="#F8F5EF"/>
<path d="M27.3978 16.3607H26.9204V13.7613C26.92 12.3383 26.3647 10.9717 25.3721 9.95182H26.5888C27.1307 9.95182 27.6501 9.73674 28.0331 9.35374C28.4161 8.97073 28.6312 8.45134 28.6312 7.90944V5.03179C28.6312 4.49016 28.4161 3.97048 28.0331 3.58749C27.6501 3.20449 27.1307 2.9894 26.5888 2.9894H22.166V1.82887C22.166 1.37118 21.7951 1 21.3372 1C20.8795 1 20.5083 1.37118 20.5083 1.82887V2.9894H12.5512V1.82887C12.5512 1.37118 12.18 1 11.7223 1C11.2644 1 10.8934 1.37118 10.8934 1.82887V2.9894H6.47066C5.92879 2.9894 5.40935 3.20448 5.02635 3.58749C4.64336 3.97049 4.42827 4.49012 4.42827 5.03179V7.90967V7.90944C4.42827 8.4513 4.64335 8.97075 5.02635 9.35374C5.40936 9.73674 5.92875 9.95183 6.47066 9.95183H7.57796C6.58534 10.9718 6.02988 12.3383 6.02964 13.7613V16.3605L5.58861 16.3607C3.06572 16.3607 1 18.5423 1 21.2245V26.0287C1.00093 26.6887 1.26341 27.3215 1.73035 27.7882C2.19705 28.2551 2.82978 28.5176 3.49009 28.5186H6.05278C6.12354 29.0676 6.39182 29.5722 6.80716 29.9383C7.22252 30.3044 7.75699 30.5068 8.31067 30.5079H24.6429C25.1968 30.5074 25.7315 30.3053 26.1471 29.9392C26.5627 29.5729 26.8307 29.068 26.9007 28.5185H29.5099C30.1702 28.5176 30.8029 28.2551 31.2696 27.7882C31.7363 27.3215 31.9991 26.6888 32 26.0287V21.2245C32 18.5422 29.9343 16.3607 27.398 16.3607L27.3978 16.3607ZM27.3978 18.0185C29.0224 18.0185 30.3418 19.4574 30.3418 21.2245V22.2192H27.1922L27.1924 18.0185H27.3978ZM26.5888 4.64707C26.8013 4.64707 26.9734 4.81914 26.9734 5.03167V7.90956V7.90933C26.9734 8.12186 26.8013 8.29393 26.5888 8.29393H22.166V4.64703L26.5888 4.64707ZM20.5084 4.64707V8.29397H12.5513V4.64707H20.5084ZM6.08615 7.90938V5.03173C6.08615 4.81919 6.25821 4.64713 6.47075 4.64713H10.8935V8.29402H6.47075C6.25822 8.29402 6.08615 8.12196 6.08615 7.90942V7.90938ZM5.58869 18.0186H5.79429V22.2194H2.6578V21.2247C2.6578 19.4575 3.98067 18.0186 5.58868 18.0186H5.58869ZM3.49018 26.8608C3.03042 26.8608 2.65782 26.4883 2.65782 26.0287V23.877H5.80745V26.8608L3.49018 26.8608ZM25.2628 28.2302H25.2625C25.2625 28.3946 25.1973 28.5523 25.081 28.6684C24.9646 28.7848 24.8069 28.8502 24.6425 28.8502H8.31025C7.96774 28.8502 7.6902 28.5725 7.6902 28.2302V13.7611C7.69158 12.8559 8.01421 11.9803 8.60071 11.2907C9.1872 10.6008 9.99966 10.1417 10.8931 9.99484V13.1015C10.8931 13.5592 11.264 13.9304 11.7219 13.9304C12.1796 13.9304 12.5508 13.5592 12.5508 13.1015V9.95162H20.5079V13.1015C20.5079 13.5592 20.8791 13.9304 21.3368 13.9304C21.7947 13.9304 22.1657 13.5592 22.1657 13.1015V10.0113C23.0366 10.1806 23.8216 10.647 24.3865 11.3309C24.9513 12.015 25.261 12.8741 25.2624 13.7611L25.2628 28.2302ZM29.5095 26.8608H27.1887V23.877H30.3384V26.0288C30.3384 26.4869 29.9679 26.859 29.5095 26.8609V26.8608Z" fill="#F8F5EF" stroke="#F8F5EF"/>
</svg>
