<svg width="120" height="120" viewBox="0 0 120 120" fill="none" xmlns="http://www.w3.org/2000/svg">
<circle cx="60" cy="60" r="58.75" fill="white"/>
<circle cx="60" cy="60" r="58.75" stroke="#1A1A37" stroke-width="2.5"/>
<circle cx="60" cy="60" r="58.75" stroke="#C2B286" stroke-width="2.5"/>
<path d="M60.7792 37.4026C47.8699 37.4026 37.4026 47.8699 37.4026 60.7792C37.4026 73.6885 47.8699 84.1558 60.7792 84.1558C73.6885 84.1558 84.1558 73.6885 84.1558 60.7792C84.1558 47.8699 73.6885 37.4026 60.7792 37.4026ZM60.7792 80.1902C50.0614 80.1902 41.3683 71.497 41.3683 60.7792C41.3683 50.0614 50.0614 41.3683 60.7792 41.3683C71.497 41.3683 80.1902 50.0614 80.1902 60.7792C80.1902 71.497 71.497 80.1902 60.7792 80.1902ZM66.9208 49.477C66.0911 49.2944 65.1258 49.1953 64.0352 49.1953C58.4676 49.1953 54.7002 52.1017 53.6723 57.017H52.013C51.7834 57.017 51.5955 57.2049 51.5955 57.4345V58.8538C51.5955 59.0834 51.7834 59.2712 52.013 59.2712H53.3905C53.3749 59.4851 53.3749 59.7095 53.3749 59.9391V61.8646H52.013C51.7834 61.8646 51.5955 62.0524 51.5955 62.282V63.7013C51.5955 63.9309 51.7834 64.1187 52.013 64.1187H53.5888C54.4863 69.295 58.3059 72.3632 64.0352 72.3632C65.1258 72.3632 66.0911 72.2745 66.9208 72.097C67.1139 72.0553 67.2547 71.8883 67.2547 71.69V69.4567C67.2547 69.1958 67.0147 68.9976 66.759 69.0497C65.992 69.1958 65.0945 69.2637 64.0561 69.2637C60.4818 69.2637 58.0815 67.3539 57.2832 64.1187H64.0979C64.3274 64.1187 64.5153 63.9309 64.5153 63.7013V62.282C64.5153 62.0524 64.3274 61.8646 64.0979 61.8646H56.9805V59.9861C56.9805 59.7408 56.9805 59.4956 56.9962 59.266H64.0874C64.317 59.266 64.5049 59.0781 64.5049 58.8486V57.4293C64.5049 57.1997 64.317 57.0118 64.0874 57.0118H57.3927C58.2902 54.0428 60.6435 52.2948 64.0509 52.2948C65.0893 52.2948 65.9868 52.373 66.7486 52.5243C66.8091 52.5367 66.8716 52.5355 66.9315 52.5208C66.9915 52.5061 67.0474 52.4782 67.0953 52.4393C67.1432 52.4004 67.1819 52.3513 67.2086 52.2956C67.2352 52.24 67.2492 52.1791 67.2495 52.1173V49.884C67.2495 49.6858 67.1139 49.5188 66.9208 49.477Z" fill="black"/>
</svg>
