<svg width="121" height="120" viewBox="0 0 121 120" fill="none" xmlns="http://www.w3.org/2000/svg">
<circle cx="60.5" cy="60" r="58.75" fill="white"/>
<circle cx="60.5" cy="60" r="58.75" stroke="#1A1A37" stroke-width="2.5"/>
<circle cx="60.5" cy="60" r="58.75" stroke="#C2B286" stroke-width="2.5"/>
<path fill-rule="evenodd" clip-rule="evenodd" d="M45.247 38.0904C45.7948 37.1733 47.1534 37.1733 47.7011 38.0904L50.8761 43.4069L57.0418 44.709C58.1054 44.9337 58.5252 46.1938 57.8001 46.9853L53.5968 51.5731L54.2323 57.6943C54.3419 58.7503 53.2428 59.5291 52.2469 59.1011L46.4741 56.6201L40.7012 59.1011C39.7053 59.5291 38.6062 58.7503 38.7159 57.6943L39.3513 51.5731L35.148 46.9853C34.4229 46.1938 34.8427 44.9337 35.9064 44.709L42.072 43.4069L45.247 38.0904ZM46.4741 40.4384L43.8462 44.8385C43.6456 45.1745 43.3094 45.4127 42.9198 45.495L37.8168 46.5727L41.2957 50.3699C41.5613 50.6597 41.6897 51.0452 41.6496 51.432L41.1236 56.4981L45.9014 54.4448C46.2663 54.288 46.6819 54.288 47.0466 54.4448L51.8245 56.4981L51.2986 51.432C51.2584 51.0452 51.3869 50.6597 51.6524 50.3699L55.1313 46.5727L50.0283 45.495C49.6387 45.4127 49.3026 45.1745 49.1018 44.8385L46.4741 40.4384Z" fill="black" stroke="black" stroke-width="0.5"/>
<path fill-rule="evenodd" clip-rule="evenodd" d="M74.8573 38.0904C75.4051 37.1733 76.7637 37.1733 77.3114 38.0904L80.4865 43.4069L86.6521 44.709C87.7157 44.9337 88.1356 46.1938 87.4105 46.9853L83.2071 51.5731L83.8426 57.6943C83.9522 58.7503 82.8532 59.5291 81.8573 59.1011L76.0844 56.6201L70.3116 59.1011C69.3157 59.5291 68.2166 58.7503 68.3262 57.6943L68.9617 51.5731L64.7584 46.9853C64.0333 46.1938 64.4531 44.9337 65.5167 44.709L71.6823 43.4069L74.8573 38.0904ZM76.0844 40.4384L73.4566 44.8385C73.256 45.1745 72.9197 45.4127 72.5301 45.495L67.4272 46.5727L70.906 50.3699C71.1716 50.6597 71.3001 51.0452 71.2599 51.432L70.734 56.4981L75.5118 54.4448C75.8767 54.288 76.2922 54.288 76.657 54.4448L81.4349 56.4981L80.9089 51.432C80.8687 51.0452 80.9972 50.6597 81.2628 50.3699L84.7416 46.5727L79.6387 45.495C79.249 45.4127 78.9129 45.1745 78.7122 44.8385L76.0844 40.4384Z" fill="black" stroke="black" stroke-width="0.5"/>
<path fill-rule="evenodd" clip-rule="evenodd" d="M59.2729 59.9087C59.8206 58.9915 61.1793 58.9915 61.7269 59.9087L64.902 65.2251L71.0676 66.5273C72.1313 66.7519 72.5511 68.012 71.826 68.8035L67.6227 73.3914L68.2581 79.5126C68.3678 80.5685 67.2687 81.3474 66.2728 80.9194L60.5 78.4384L54.7271 80.9194C53.7312 81.3474 52.6321 80.5685 52.7417 79.5126L53.3772 73.3914L49.1739 68.8035C48.4488 68.012 48.8686 66.7519 49.9322 66.5273L56.0979 65.2251L59.2729 59.9087ZM60.5 62.2566L57.8721 66.6567C57.6715 66.9927 57.3353 67.231 56.9456 67.3132L51.8427 68.3909L55.3215 72.1881C55.5872 72.4779 55.7156 72.8635 55.6754 73.2502L55.1495 78.3164L59.9273 76.263C60.2922 76.1063 60.7077 76.1063 61.0725 76.263L65.8504 78.3164L65.3245 73.2502C65.2843 72.8635 65.4127 72.4779 65.6783 72.1881L69.1572 68.3909L64.0542 67.3132C63.6646 67.231 63.3284 66.9927 63.1277 66.6567L60.5 62.2566Z" fill="black" stroke="black" stroke-width="0.5"/>
</svg>
