<svg width="120" height="120" viewBox="0 0 120 120" fill="none" xmlns="http://www.w3.org/2000/svg">
<circle cx="60" cy="60" r="58.75" fill="white"/>
<circle cx="60" cy="60" r="58.75" stroke="#1A1A37" stroke-width="2.5"/>
<circle cx="60" cy="60" r="58.75" stroke="#C2B286" stroke-width="2.5"/>
<path d="M60.7792 37.4026C73.6897 37.4026 84.1558 47.8687 84.1558 60.7792C84.1558 73.6897 73.6897 84.1558 60.7792 84.1558C47.8687 84.1558 37.4026 73.6897 37.4026 60.7792C37.4026 47.8687 47.8687 37.4026 60.7792 37.4026ZM60.7792 42.0779C50.4508 42.0779 42.0779 50.4508 42.0779 60.7792C42.0779 71.1077 50.4508 79.4805 60.7792 79.4805C71.1077 79.4805 79.4805 71.1077 79.4805 60.7792C79.4805 50.4508 71.1077 42.0779 60.7792 42.0779ZM60.7792 46.7532C61.9781 46.7532 62.9661 47.6557 63.1012 48.8183L63.1169 49.0909V59.811L69.4452 66.1392C70.358 67.0521 70.358 68.5323 69.4452 69.4452C68.6025 70.2878 67.2765 70.3526 66.3595 69.6396L66.1392 69.4452L59.1263 62.4322C58.761 62.0669 58.529 61.5931 58.4618 61.0865L58.4415 60.7792V49.0909C58.4415 47.7999 59.4881 46.7532 60.7792 46.7532Z" fill="black"/>
</svg>
