<svg width="30" height="29" viewBox="0 0 30 29" fill="none" xmlns="http://www.w3.org/2000/svg">
<path d="M19.5003 14.5006C19.5003 15.6941 19.0262 16.8387 18.1823 17.6826C17.3384 18.5265 16.1938 19.0006 15.0003 19.0006C13.8069 19.0006 12.6623 18.5265 11.8184 17.6826C10.9744 16.8387 10.5003 15.6941 10.5003 14.5006C10.5003 14.2441 10.5273 13.9936 10.5738 13.7506H9.00034V19.7461C9.00034 20.1631 9.33784 20.5006 9.75484 20.5006H20.2473C20.4472 20.5002 20.6387 20.4205 20.7799 20.2791C20.9211 20.1376 21.0003 19.9459 21.0003 19.7461V13.7506H19.4268C19.4733 13.9936 19.5003 14.2441 19.5003 14.5006ZM15.0003 17.5006C15.3944 17.5005 15.7846 17.4228 16.1486 17.2719C16.5127 17.121 16.8434 16.8999 17.122 16.6212C17.4005 16.3424 17.6215 16.0116 17.7722 15.6475C17.9229 15.2834 18.0004 14.8932 18.0003 14.4991C18.0002 14.105 17.9225 13.7148 17.7716 13.3508C17.6207 12.9868 17.3996 12.656 17.1209 12.3775C16.8422 12.0989 16.5113 11.8779 16.1472 11.7272C15.7831 11.5765 15.3929 11.499 14.9988 11.4991C14.203 11.4993 13.4398 11.8156 12.8772 12.3785C12.3146 12.9414 11.9986 13.7047 11.9988 14.5006C11.999 15.2964 12.3154 16.0596 12.8783 16.6222C13.4412 17.1848 14.2045 17.5008 15.0003 17.5006ZM18.6003 11.3506H20.3988C20.5183 11.3506 20.6329 11.3032 20.7176 11.2189C20.8022 11.1345 20.8499 11.0201 20.8503 10.9006V9.10209C20.8503 8.98234 20.8028 8.8675 20.7181 8.78283C20.6334 8.69815 20.5186 8.65059 20.3988 8.65059H18.6003C18.4806 8.65059 18.3658 8.69815 18.2811 8.78283C18.1964 8.8675 18.1488 8.98234 18.1488 9.10209V10.9006C18.1503 11.1481 18.3528 11.3506 18.6003 11.3506ZM15.0003 0.100586C11.1812 0.100586 7.51853 1.61772 4.818 4.31825C2.11748 7.01877 0.600342 10.6815 0.600342 14.5006C0.600342 18.3197 2.11748 21.9824 4.818 24.6829C7.51853 27.3834 11.1812 28.9006 15.0003 28.9006C16.8914 28.9006 18.7639 28.5281 20.511 27.8045C22.2581 27.0808 23.8455 26.0201 25.1827 24.6829C26.5198 23.3458 27.5805 21.7583 28.3042 20.0112C29.0279 18.2641 29.4003 16.3916 29.4003 14.5006C29.4003 12.6096 29.0279 10.737 28.3042 8.98994C27.5805 7.24286 26.5198 5.65541 25.1827 4.31825C23.8455 2.98108 22.2581 1.92039 20.511 1.19672C18.7639 0.473053 16.8914 0.100586 15.0003 0.100586ZM22.5003 20.3341C22.5003 21.2506 21.7503 22.0006 20.8338 22.0006H9.16684C8.25034 22.0006 7.50034 21.2506 7.50034 20.3341V8.66709C7.50034 7.75059 8.25034 7.00059 9.16684 7.00059H20.8338C21.7503 7.00059 22.5003 7.75059 22.5003 8.66709V20.3341Z" fill="#3D3E41"/>
</svg>
