<svg width="82" height="82" viewBox="0 0 82 82" fill="none" xmlns="http://www.w3.org/2000/svg">
<path d="M38.9509 65.4463C24.396 44.346 21.6943 42.1805 21.6943 34.4258C21.6943 23.8036 30.3053 15.1927 40.9275 15.1927C51.5497 15.1927 60.1606 23.8036 60.1606 34.4258C60.1606 42.1805 57.459 44.346 42.9041 65.4463C41.9489 66.8261 39.9059 66.826 38.9509 65.4463Z" fill="white"/>
<path fill-rule="evenodd" clip-rule="evenodd" d="M33.5847 54.7603C35.4823 57.4634 37.7192 60.6499 40.357 64.4739C40.6323 64.8706 41.2226 64.8707 41.498 64.4739C44.1358 60.6498 46.3727 57.4634 48.2703 54.7603C51.6484 49.9482 53.951 46.6681 55.5254 44.0503C56.7332 42.042 57.4478 40.5233 57.8718 39.0916C58.2919 37.673 58.451 36.2577 58.451 34.4258C58.451 24.7478 50.6055 16.9023 40.9275 16.9023C31.2495 16.9023 23.4039 24.7478 23.4039 34.4258C23.4039 36.2577 23.563 37.673 23.9831 39.0916C24.4071 40.5233 25.1218 42.042 26.3296 44.0503C27.9039 46.6681 30.2066 49.9482 33.5847 54.7603ZM32.2425 55.8243C34.1362 58.5221 36.355 61.683 38.9509 65.4463C39.9059 66.826 41.9489 66.8261 42.9041 65.4463C45.4999 61.683 47.7188 58.5221 49.6125 55.8243C58.3367 43.3958 60.1606 40.7974 60.1606 34.4258C60.1606 23.8036 51.5497 15.1927 40.9275 15.1927C30.3053 15.1927 21.6943 23.8036 21.6943 34.4258C21.6943 40.7974 23.5182 43.3958 32.2425 55.8243Z" fill="black"/>
<path fill-rule="evenodd" clip-rule="evenodd" d="M32.245 55.8259C34.1387 58.5237 36.3575 61.6846 38.9534 65.4478C39.246 65.8705 39.6407 66.1637 40.0749 66.3274C40.5091 66.1637 40.9037 65.8705 41.1963 65.4478C43.7921 61.6846 46.011 58.5237 47.9047 55.8259C54.3276 46.6758 57.0104 42.8538 57.9789 38.9316C56.366 36.0239 54.3655 33.3704 52.0931 30.8202C51.0378 29.6358 50.0239 28.2442 48.9974 26.8353L48.9974 26.8353C45.946 22.6471 42.784 18.3071 38.0952 18.8108C34.0379 19.2468 32.0973 23.076 30.0951 27.0268C28.8769 29.4307 27.6358 31.8795 25.8813 33.6364C24.6761 34.8432 23.2457 35.7589 21.7881 36.6216C22.2465 41.582 24.5882 44.918 32.245 55.8259Z" fill="white"/>
<path fill-rule="evenodd" clip-rule="evenodd" d="M48.9974 26.8354C45.946 22.6471 42.784 18.3071 38.0952 18.8108C34.0379 19.2468 32.0973 23.076 30.0951 27.0268C28.8769 29.4307 27.6358 31.8795 25.8813 33.6364C24.6761 34.8432 23.2457 35.7589 21.7881 36.6216C22.2465 41.582 24.5882 44.918 32.245 55.8259C34.1387 58.5237 36.3575 61.6846 38.9534 65.4478C39.246 65.8705 39.6407 66.1637 40.0749 66.3274C40.5091 66.1637 40.9037 65.8705 41.1963 65.4478C43.7921 61.6846 46.011 58.5237 47.9047 55.8259C54.3276 46.6758 57.0104 42.8538 57.9789 38.9316C56.366 36.0239 54.3655 33.3704 52.0931 30.8202C51.0378 29.6358 50.0239 28.2442 48.9974 26.8354ZM56.1436 39.1616C54.668 36.6221 52.8692 34.2609 50.8167 31.9575C49.7053 30.7102 48.6501 29.2619 47.6435 27.8803L47.6277 27.8586L47.6277 27.8586L47.6156 27.842L47.6156 27.842C46.0614 25.7088 44.6203 23.7443 43.0315 22.3475C41.4843 20.9873 39.9795 20.3278 38.2778 20.5107C36.8238 20.6669 35.6977 21.411 34.6431 22.6889C33.5446 24.02 32.6433 25.7806 31.6201 27.7996C31.5991 27.8411 31.578 27.8827 31.5569 27.9244C30.3841 30.2391 29.0392 32.8937 27.091 34.8445C26.0176 35.9193 24.8071 36.7704 23.6224 37.5093C24.2546 41.387 26.4985 44.6638 33.6443 54.8436L33.6448 54.8444C35.4687 57.4426 37.5974 60.4752 40.0749 64.0629C42.5521 60.4756 44.6806 57.4433 46.5043 54.8452L46.5054 54.8437C49.7299 50.25 51.9703 47.057 53.5315 44.5219C54.8917 42.313 55.6834 40.6854 56.1436 39.1616Z" fill="black"/>
<path fill-rule="evenodd" clip-rule="evenodd" d="M60.0143 32.0266C60.1122 32.8133 60.1627 33.6148 60.1627 34.4281C60.1627 40.7997 58.3388 43.3981 49.6146 55.8266C47.7209 58.5244 45.502 61.6853 42.9062 65.4486C42.6622 65.801 42.3472 66.0634 41.9975 66.2358C41.5291 66.0192 41.1054 65.6605 40.7853 65.1596C37.7192 60.3459 35.0984 56.3026 32.8616 52.8518C31.3538 50.5255 30.0204 48.4684 28.8428 46.626C29.1464 46.1982 29.4485 45.7714 29.7472 45.3451L29.876 45.1612C33.8306 39.516 37.9614 33.6193 44.1651 31.3893C49.2796 29.5507 54.9177 30.03 60.0143 32.0266Z" fill="white"/>
<path fill-rule="evenodd" clip-rule="evenodd" d="M29.7472 45.3451C29.4485 45.7714 29.1464 46.1982 28.8428 46.626C30.0204 48.4684 31.3538 50.5255 32.8616 52.8518C35.0984 56.3026 37.7192 60.3459 40.7853 65.1596C41.1054 65.6605 41.5291 66.0192 41.9975 66.2358C42.3472 66.0634 42.6622 65.801 42.9062 65.4486C45.502 61.6855 47.7207 58.5246 49.6144 55.8269L49.6146 55.8266C58.3388 43.3981 60.1627 40.7997 60.1627 34.4281C60.1627 33.6148 60.1122 32.8133 60.0143 32.0266C54.9177 30.03 49.2796 29.5507 44.1651 31.3893C37.9614 33.6193 33.8306 39.516 29.876 45.1612L29.7472 45.3451ZM58.4148 33.2584C53.8907 31.6919 49.0734 31.4416 44.7435 32.9981C39.1461 35.0102 35.314 40.3782 31.2762 46.1421L31.2762 46.1421L31.1474 46.326L31.1474 46.326C31.0663 46.4418 30.985 46.5575 30.9035 46.6732C31.9205 48.2567 33.0472 49.9949 34.2962 51.9219L34.297 51.9231C36.4674 55.2716 39.0026 59.1828 41.9561 63.8156C44.3603 60.3362 46.4328 57.3837 48.2144 54.8457L48.2153 54.8444C52.612 48.5809 55.1613 44.9419 56.6407 42.0726C58.0502 39.3388 58.4531 37.3691 58.4531 34.4281C58.4531 34.0348 58.4402 33.6448 58.4148 33.2584Z" fill="black"/>
<path d="M49.478 34.1704C49.478 38.8914 45.6509 42.7185 40.9299 42.7185C36.2089 42.7185 32.3818 38.8914 32.3818 34.1704C32.3818 29.4495 36.2089 25.6224 40.9299 25.6224C45.6509 25.6224 49.478 29.4495 49.478 34.1704Z" fill="white"/>
<path fill-rule="evenodd" clip-rule="evenodd" d="M40.9299 41.0089C44.7067 41.0089 47.7683 37.9472 47.7683 34.1704C47.7683 30.3937 44.7067 27.332 40.9299 27.332C37.1531 27.332 34.0914 30.3937 34.0914 34.1704C34.0914 37.9472 37.1531 41.0089 40.9299 41.0089ZM40.9299 42.7185C45.6509 42.7185 49.478 38.8914 49.478 34.1704C49.478 29.4495 45.6509 25.6224 40.9299 25.6224C36.2089 25.6224 32.3818 29.4495 32.3818 34.1704C32.3818 38.8914 36.2089 42.7185 40.9299 42.7185Z" fill="black"/>
<path fill-rule="evenodd" clip-rule="evenodd" d="M32.24 55.826C34.1337 58.5238 36.3525 61.6847 38.9484 65.4479C39.9034 66.8276 41.9464 66.8277 42.9016 65.4479C45.4974 61.6847 47.7163 58.5238 49.61 55.826C52.5251 51.673 54.6699 48.6176 56.2336 46.1523C55.8578 46.0352 55.4793 45.9201 55.1 45.8047C52.8783 45.1288 50.6276 44.4441 48.7126 43.2991C47.0232 42.2889 45.5655 40.8343 44.1267 39.3986C41.7294 37.0064 39.3847 34.6667 36.1081 34.5224C31.0492 34.2996 26.7611 38.0804 23.1318 41.6907C24.5676 44.8959 27.2956 48.7823 32.24 55.826Z" fill="white"/>
<path fill-rule="evenodd" clip-rule="evenodd" d="M33.6402 54.8451C35.5334 57.5422 37.7552 60.7073 40.3545 64.4756C40.6297 64.8722 41.2198 64.8723 41.4952 64.4758C44.0947 60.7074 46.3166 57.5421 48.2099 54.8449L48.2107 54.8438C50.4231 51.692 52.1733 49.1982 53.56 47.1214C51.6602 46.5326 49.6289 45.8389 47.8352 44.7664C45.9637 43.6473 44.3797 42.0664 42.9879 40.6774L42.9191 40.6087C40.4064 38.1014 38.5302 36.3403 36.0329 36.2303C33.9689 36.1394 31.9781 36.858 29.9995 38.1129C28.3259 39.1743 26.7384 40.5692 25.2035 42.0527C26.6661 44.8986 29.2124 48.5372 33.6393 54.8438L33.6402 54.8451ZM23.1318 41.6907C26.7611 38.0804 31.0492 34.2996 36.1081 34.5224C39.3847 34.6667 41.7294 37.0064 44.1267 39.3986C45.5655 40.8343 47.0232 42.2889 48.7126 43.2991C50.4659 44.3474 52.5006 45.0099 54.5367 45.633C54.7245 45.6905 54.9124 45.7476 55.1 45.8047C55.4793 45.9201 55.8578 46.0352 56.2336 46.1523C55.933 46.6261 55.611 47.1218 55.2662 47.6428C53.817 49.8327 51.9649 52.4712 49.61 55.826L49.6098 55.8262C47.7162 58.5239 45.4974 61.6848 42.9016 65.4479C41.9464 66.8277 39.9034 66.8276 38.9484 65.4479C36.3525 61.6847 34.1337 58.5238 32.24 55.826C27.2956 48.7823 24.5676 44.8959 23.1318 41.6907Z" fill="black"/>
<path d="M32.1709 81.4271L35.4934 72.2444L33.6029 71.5603L31.2715 78.0036L31.2458 77.9943L31.3265 70.7367L29.7703 70.1736L25.165 75.8669L25.1393 75.8576L27.4939 69.3499L25.6034 68.6659L22.2808 77.8486L25.1231 78.877L29.44 73.2975L29.4657 73.3068L29.3286 80.3987L32.1709 81.4271Z" fill="#F8F5EF"/>
<path d="M18.6448 67.9719L15.299 69.7786L15.2787 69.7603L16.767 66.276L18.6448 67.9719ZM14.4773 72.2801L23.7631 67.5082L22.1594 66.0597L20.1335 67.1602L17.4234 64.7126L18.3329 62.6037L16.6785 61.1095L12.8432 70.8041L14.4773 72.2801Z" fill="#F8F5EF"/>
<path d="M6.81934 63.9271L15.4349 59.3299L14.424 57.4355L11.6487 58.9163L9.97118 58.4163L12.4603 53.7552L11.1919 51.378L7.9493 57.8519L2.75016 56.301L4.01212 58.666L9.38019 60.1268L5.80848 62.0326L6.81934 63.9271Z" fill="#F8F5EF"/>
<path d="M1.13965 50.8802L10.7888 49.3783L9.64869 42.0536L7.86482 42.3313L8.67466 47.5342L6.30967 47.9023L5.58187 43.2264L3.93314 43.4831L4.66095 48.159L2.59328 48.4808L1.80027 43.386L0.016394 43.6636L1.13965 50.8802Z" fill="#F8F5EF"/>
<path d="M7.77016 30.3248L11.3462 31.6165L12.0757 29.597L8.55109 28.3239L4.12245 22.8706L3.30933 25.1217L6.16554 28.5674L1.7621 29.4053L0.944336 31.6693L7.77016 30.3248Z" fill="#F8F5EF"/>
<path d="M11.7584 19.9976C11.4315 19.7205 11.1444 19.4175 10.8973 19.0886C10.6561 18.7527 10.4851 18.4045 10.3841 18.0441C10.2763 17.6778 10.2618 17.307 10.3408 16.9317C10.4129 16.5505 10.6051 16.1756 10.9175 15.807C11.23 15.4383 11.5683 15.1872 11.9325 15.0536C12.2897 14.9141 12.6578 14.8676 13.0369 14.9139C13.409 14.9543 13.7775 15.0695 14.1425 15.2593C14.5135 15.4422 14.8624 15.6721 15.1893 15.9492C15.5023 16.2145 15.776 16.5121 16.0102 16.8421C16.2434 17.1593 16.4105 17.498 16.5114 17.8585C16.6123 18.2189 16.6268 18.5897 16.5547 18.9708C16.4757 19.3461 16.28 19.7181 15.9676 20.0867C15.6551 20.4554 15.3203 20.7095 14.9631 20.849C14.5989 20.9825 14.2307 21.0291 13.8586 20.9887C13.4865 20.9482 13.122 20.8424 12.765 20.6714C12.407 20.4874 12.0714 20.2628 11.7584 19.9976ZM10.3701 21.6357C10.9127 22.0955 11.4912 22.4424 12.1057 22.6763C12.7132 22.9043 13.3235 23.0092 13.9366 22.9909C14.5497 22.9727 15.1487 22.8229 15.7336 22.5418C16.3174 22.2477 16.851 21.8155 17.3344 21.2451C17.8237 20.6678 18.1625 20.0705 18.351 19.4533C18.5324 18.8302 18.5819 18.2148 18.4994 17.607C18.4168 16.9992 18.2133 16.4144 17.8887 15.8525C17.5572 15.2847 17.1201 14.7709 16.5776 14.3111C16.0211 13.8395 15.4356 13.4867 14.8211 13.2528C14.1997 13.013 13.579 12.8993 12.9589 12.9116C12.3389 12.924 11.7364 13.0708 11.1515 13.352C10.5666 13.6331 10.0295 14.0624 9.54025 14.6397C9.05686 15.2101 8.72149 15.8104 8.53414 16.4404C8.35269 17.0635 8.3067 17.6819 8.39618 18.2955C8.48566 18.9092 8.69964 19.5029 9.03812 20.0766C9.36964 20.6444 9.81364 21.1641 10.3701 21.6357Z" fill="#F8F5EF"/>
<path d="M28.0581 8.53176L25.1688 3.19062L23.2802 4.21228L26.1694 9.55342C26.5165 10.195 26.6441 10.7376 26.5524 11.1812C26.4563 11.6167 26.0714 12.0167 25.3977 12.3811C25.0128 12.5893 24.6758 12.7042 24.3868 12.7258C24.1015 12.735 23.8492 12.6901 23.6298 12.5911C23.406 12.4841 23.2133 12.3291 23.0518 12.1263C22.8902 11.9234 22.7465 11.7057 22.6207 11.4731L19.7314 6.13196L17.8428 7.15363L20.7321 12.4948C21.3654 13.6657 22.1508 14.3604 23.088 14.5791C24.0333 14.7934 25.0873 14.586 26.2502 13.957C27.397 13.3366 28.1434 12.57 28.4893 11.6573C28.8309 10.7365 28.6871 9.69462 28.0581 8.53176Z" fill="#F8F5EF"/>
<path d="M34.1067 5.2455L33.7246 2.52314L36.0542 2.19612C36.5418 2.12768 36.9227 2.1847 37.1969 2.36718C37.4698 2.54064 37.6393 2.86213 37.7052 3.33166C37.7736 3.81924 37.7011 4.1885 37.4878 4.43943C37.2744 4.69036 36.9239 4.85004 36.4363 4.91849L34.1067 5.2455ZM31.3662 1.16925L32.7237 10.8397L34.8501 10.5413L34.3197 6.76244L36.4461 6.46395C36.9788 6.38917 37.3791 6.45268 37.6468 6.65449C37.9145 6.8563 38.12 7.20496 38.2632 7.70047C38.3719 8.08112 38.4695 8.48174 38.5562 8.90232C38.6429 9.3229 38.7664 9.67845 38.9269 9.96898L41.0533 9.67048C40.935 9.54898 40.8354 9.39723 40.7546 9.21522C40.6816 9.02291 40.6163 8.8203 40.5588 8.6074C40.5103 8.39323 40.467 8.18294 40.4288 7.97653C40.3906 7.77012 40.3563 7.5908 40.3257 7.43856C40.2734 7.1973 40.2031 6.95858 40.1147 6.72239C40.0353 6.48494 39.9275 6.27449 39.7913 6.09105C39.6538 5.89859 39.4891 5.74216 39.2972 5.62177C39.1041 5.49235 38.8716 5.40991 38.5996 5.37443L38.5958 5.34734C39.1071 5.05458 39.451 4.68405 39.6275 4.23574C39.813 3.78617 39.8658 3.27696 39.786 2.7081C39.734 2.3379 39.6181 2.00429 39.4383 1.70727C39.2663 1.39996 39.0367 1.14215 38.7497 0.933842C38.4717 0.72427 38.1471 0.57648 37.7759 0.490472C37.4125 0.394166 37.0141 0.376432 36.5807 0.437272L31.3662 1.16925Z" fill="#F8F5EF"/>
<path d="M52.5621 6.91856C52.7301 6.52433 52.9347 6.16055 53.1759 5.82724C53.4255 5.4975 53.7075 5.23114 54.022 5.02818C54.34 4.81683 54.6899 4.69341 55.0718 4.65793C55.4572 4.61406 55.8722 4.68686 56.3168 4.87633C56.7613 5.06581 57.1012 5.31475 57.3365 5.62317C57.5754 5.9232 57.7287 6.26112 57.7965 6.63692C57.8679 7.00433 57.8668 7.39044 57.7934 7.79526C57.7284 8.20365 57.6119 8.60496 57.4438 8.99919C57.283 9.37664 57.0795 9.72605 56.8335 10.0474C56.5995 10.3639 56.3253 10.6237 56.0108 10.8267C55.6963 11.0296 55.3464 11.153 54.961 11.1969C54.5791 11.2324 54.1659 11.1554 53.7213 10.9659C53.2768 10.7765 52.9351 10.5317 52.6962 10.2317C52.461 9.92325 52.3076 9.58533 52.2363 9.21792C52.1649 8.85051 52.1581 8.471 52.216 8.07938C52.2859 7.68295 52.4012 7.29601 52.5621 6.91856ZM50.5868 6.07665C50.3079 6.73091 50.1476 7.38612 50.1058 8.0423C50.0676 8.69008 50.1478 9.30411 50.3465 9.88438C50.5452 10.4646 50.8654 10.9926 51.3069 11.4682C51.7604 11.939 52.3311 12.321 53.0189 12.6141C53.7151 12.9109 54.3858 13.058 55.0311 13.0555C55.68 13.0446 56.2825 12.9099 56.8387 12.6514C57.3949 12.3929 57.8935 12.0255 58.3343 11.5493C58.7787 11.0648 59.1403 10.4953 59.4192 9.84109C59.7052 9.17007 59.8691 8.50646 59.9109 7.85029C59.9562 7.18573 59.8813 6.55912 59.6862 5.97046C59.4911 5.38181 59.1727 4.84967 58.7312 4.37405C58.2897 3.89843 57.7208 3.51226 57.0246 3.21553C56.3368 2.92239 55.6643 2.77946 55.007 2.78676C54.3581 2.79764 53.7538 2.93653 53.194 3.20344C52.6342 3.47035 52.1303 3.85028 51.6824 4.34324C51.238 4.82782 50.8728 5.40562 50.5868 6.07665Z" fill="#F8F5EF"/>
<path d="M66.2888 22.5184L75.2016 17.7416L73.7587 16.2072L67.7605 19.6512L67.7417 19.6313L71.5007 13.806L70.1234 12.3414L64.1193 15.6594L64.1006 15.6395L67.8841 9.96008L66.4131 8.39581L61.07 16.9687L62.5597 18.5529L68.5169 15.185L68.5357 15.2049L64.8271 20.9641L66.2888 22.5184Z" fill="#F8F5EF"/>
<path d="M77.999 23.0989L68.8318 26.4638L69.5245 28.3512L75.6617 26.0985L75.6711 26.1242L70.9336 32.1902L71.6735 34.2059L80.8408 30.841L80.148 28.9537L73.998 31.2111L73.9886 31.1854L78.7342 25.1019L77.999 23.0989Z" fill="#F8F5EF"/>
<path d="M77.268 45.8336L79.9725 46.3264L79.5508 48.6407C79.4626 49.1251 79.2887 49.4688 79.0293 49.6717C78.7789 49.8763 78.4204 49.9361 77.954 49.8512C77.4696 49.7629 77.1418 49.578 76.9707 49.2966C76.7995 49.0152 76.7581 48.6323 76.8463 48.1479L77.268 45.8336ZM81.999 44.513L72.3919 42.7624L72.007 44.8749L75.761 45.559L75.3761 47.6715C75.2797 48.2007 75.0936 48.5607 74.8179 48.7514C74.5421 48.9422 74.1466 49.0276 73.6312 49.0079C73.2356 48.9914 72.8246 48.9582 72.3981 48.9083C71.9716 48.8584 71.5952 48.864 71.269 48.925L70.8841 51.0375C71.0366 50.9633 71.212 50.9165 71.4101 50.897C71.6157 50.8881 71.8285 50.8898 72.0487 50.9022C72.2673 50.9234 72.4805 50.9484 72.6885 50.977C72.8964 51.0056 73.0775 51.0294 73.2316 51.0482C73.477 51.0744 73.7258 51.0826 73.9778 51.0729C74.2282 51.0722 74.4618 51.036 74.6788 50.9643C74.9047 50.8943 75.105 50.7871 75.2795 50.6428C75.4631 50.5002 75.6144 50.3053 75.7336 50.0583L75.7605 50.0632C75.8777 50.6406 76.1214 51.0835 76.4915 51.3919C76.86 51.7093 77.3269 51.9195 77.892 52.0225C78.2598 52.0895 78.6129 52.0843 78.9514 52.007C79.2972 51.9402 79.6141 51.8034 79.902 51.5963C80.1883 51.3983 80.4307 51.1366 80.629 50.8112C80.8346 50.4965 80.9766 50.1239 81.0551 49.6933L81.999 44.513Z" fill="#F8F5EF"/>
<path d="M73.2283 57.4465C73.5943 57.6694 73.9249 57.9241 74.2202 58.2106C74.5107 58.5049 74.7338 58.8223 74.8895 59.1626C75.053 59.5077 75.1249 59.8718 75.1052 60.2548C75.0932 60.6425 74.9616 61.0427 74.7103 61.4555C74.4589 61.8682 74.1637 62.1689 73.8247 62.3574C73.4935 62.5507 73.1371 62.6539 72.7555 62.6671C72.3816 62.685 71.9996 62.6285 71.6096 62.4977C71.2147 62.3747 70.8343 62.2018 70.4683 61.9789C70.1179 61.7655 69.8013 61.514 69.5186 61.2244C69.2389 60.9474 69.0212 60.6387 68.8655 60.2983C68.7098 59.958 68.6379 59.5939 68.6498 59.2062C68.6696 58.8232 68.8051 58.4253 69.0564 58.0126C69.3078 57.5998 69.599 57.2968 69.9303 57.1035C70.2693 56.915 70.6257 56.8118 70.9995 56.7939C71.3734 56.776 71.7499 56.8238 72.1292 56.9373C72.5115 57.0634 72.8779 57.2331 73.2283 57.4465ZM74.3451 55.6125C73.7377 55.2426 73.1123 54.9899 72.4689 54.8543C71.8333 54.7235 71.2141 54.7147 70.6113 54.828C70.0085 54.9414 69.4401 55.1824 68.906 55.5511C68.375 55.9323 67.915 56.4421 67.5261 57.0807C67.1325 57.7271 66.8906 58.3698 66.8004 59.0088C66.718 59.6525 66.7648 60.2681 66.9408 60.8557C67.1168 61.4433 67.4088 61.9893 67.8167 62.494C68.2325 63.0034 68.7441 63.443 69.3515 63.8129C69.9745 64.1923 70.6077 64.4498 71.2511 64.5853C71.9022 64.7256 72.5331 64.7415 73.1437 64.6329C73.7542 64.5243 74.3266 64.2857 74.8607 63.917C75.3948 63.5484 75.8586 63.0408 76.2522 62.3945C76.6411 61.7559 76.8791 61.1108 76.9662 60.4593C77.0486 59.8156 76.998 59.1976 76.8142 58.6053C76.6304 58.013 76.3268 57.4598 75.9032 56.9456C75.4875 56.4363 74.9681 55.9919 74.3451 55.6125Z" fill="#F8F5EF"/>
<path d="M63.5886 67.8162L64.7889 71.4242L64.7673 71.441L61.5932 69.372L63.5886 67.8162ZM67.1103 72.6665L64.0178 62.6948L62.3137 64.0236L63.0468 66.2095L60.1671 68.4549L58.2475 67.1941L56.4894 68.5649L65.3738 74.0205L67.1103 72.6665Z" fill="#F8F5EF"/>
<path d="M53.0501 71.8733L54.9335 77.7326L53.4752 78.2014C52.9717 78.3632 52.527 78.4248 52.141 78.386C51.7492 78.3588 51.4058 78.2441 51.111 78.0419C50.8162 77.8398 50.564 77.5617 50.3544 77.2077C50.1389 76.8651 49.9558 76.4595 49.8052 75.9907C49.6405 75.4786 49.5661 75.0236 49.5819 74.6259C49.5977 74.2281 49.6779 73.8815 49.8223 73.5861C49.9696 73.2993 50.1668 73.0635 50.4138 72.8787C50.6609 72.694 50.932 72.5541 51.2272 72.4593L53.0501 71.8733ZM57.5303 78.7943L54.5419 69.4974L50.5315 70.7866C49.8197 71.0154 49.241 71.3307 48.7955 71.7325C48.3441 72.1457 48.0118 72.6165 47.7985 73.1448C47.5766 73.6758 47.4709 74.2557 47.4814 74.8844C47.492 75.5132 47.6061 76.1661 47.8237 76.8431C48.072 77.6157 48.3968 78.2536 48.798 78.7567C49.1905 79.2627 49.6391 79.6452 50.1438 79.9044C50.6398 80.1663 51.1789 80.3091 51.7612 80.3327C52.3347 80.359 52.9209 80.2759 53.5199 80.0834L57.5303 78.7943Z" fill="#F8F5EF"/>
</svg>
