<svg width="24" height="17" viewBox="0 0 24 17" fill="none" xmlns="http://www.w3.org/2000/svg">
<path d="M22.11 6.6H0.99C0.0791999 6.6 0 7.33755 0 8.25C0 9.16245 0.0791999 9.9 0.99 9.9H22.11C23.0208 9.9 23.1 9.16245 23.1 8.25C23.1 7.33755 23.0208 6.6 22.11 6.6ZM22.11 13.2H0.99C0.0791999 13.2 0 13.9375 0 14.85C0 15.7624 0.0791999 16.5 0.99 16.5H22.11C23.0208 16.5 23.1 15.7624 23.1 14.85C23.1 13.9375 23.0208 13.2 22.11 13.2ZM0.99 3.3H22.11C23.0208 3.3 23.1 2.56245 23.1 1.65C23.1 0.73755 23.0208 0 22.11 0H0.99C0.0791999 0 0 0.73755 0 1.65C0 2.56245 0.0791999 3.3 0.99 3.3Z" fill="black"/>
</svg>
