<svg width="100" height="100" viewBox="0 0 100 100" fill="none" xmlns="http://www.w3.org/2000/svg">
<g filter="url(#filter0_d_335_5870)">
<path d="M20 45C20 28.4315 33.4315 15 50 15C66.5685 15 80 28.4315 80 45C80 61.5685 66.5685 75 50 75C33.4315 75 20 61.5685 20 45Z" fill="#3D3E41"/>
<path d="M61.6057 55.2081L57.0739 50.4592C58.536 48.5015 59.3294 46.0839 59.3265 43.5951C59.3265 41.3787 58.7011 39.212 57.5294 37.369C56.3577 35.5261 54.6923 34.0897 52.7439 33.2415C50.7954 32.3933 48.6514 32.1714 46.5829 32.6038C44.5145 33.0362 42.6145 34.1035 41.1232 35.6708C39.6319 37.2381 38.6163 39.2349 38.2049 41.4088C37.7935 43.5827 38.0046 45.836 38.8117 47.8837C39.6188 49.9315 40.9855 51.6818 42.7391 52.9132C44.4926 54.1446 46.5542 54.8018 48.6632 54.8018C51.0313 54.8049 53.3317 53.9711 55.1945 52.4344L59.713 57.1973C59.8369 57.3286 59.9843 57.4328 60.1468 57.5039C60.3092 57.575 60.4834 57.6116 60.6594 57.6116C60.8353 57.6116 61.0095 57.575 61.172 57.5039C61.3344 57.4328 61.4818 57.3286 61.6057 57.1973C61.7307 57.067 61.8298 56.9121 61.8975 56.7414C61.9652 56.5707 62 56.3876 62 56.2027C62 56.0177 61.9652 55.8346 61.8975 55.6639C61.8298 55.4932 61.7307 55.3383 61.6057 55.2081ZM40.6658 43.5951C40.6658 41.9328 41.1349 40.3077 42.0136 38.9256C42.8924 37.5434 44.1414 36.4661 45.6028 35.8299C47.0641 35.1937 48.6721 35.0273 50.2235 35.3516C51.7748 35.6759 53.1998 36.4764 54.3183 37.6519C55.4367 38.8273 56.1984 40.325 56.507 41.9554C56.8156 43.5858 56.6572 45.2758 56.0519 46.8116C55.4466 48.3474 54.4215 49.6601 53.1064 50.5837C51.7912 51.5072 50.245 52.0002 48.6632 52.0002C46.5422 52.0002 44.508 51.1146 43.0082 49.5384C41.5084 47.9621 40.6658 45.8243 40.6658 43.5951Z" fill="#FFFDF6"/>
</g>
<defs>
<filter id="filter0_d_335_5870" x="0" y="0" width="100" height="100" filterUnits="userSpaceOnUse" color-interpolation-filters="sRGB">
<feFlood flood-opacity="0" result="BackgroundImageFix"/>
<feColorMatrix in="SourceAlpha" type="matrix" values="0 0 0 0 0 0 0 0 0 0 0 0 0 0 0 0 0 0 127 0" result="hardAlpha"/>
<feOffset dy="5"/>
<feGaussianBlur stdDeviation="10"/>
<feComposite in2="hardAlpha" operator="out"/>
<feColorMatrix type="matrix" values="0 0 0 0 0 0 0 0 0 0 0 0 0 0 0 0 0 0 0.15 0"/>
<feBlend mode="normal" in2="BackgroundImageFix" result="effect1_dropShadow_335_5870"/>
<feBlend mode="normal" in="SourceGraphic" in2="effect1_dropShadow_335_5870" result="shape"/>
</filter>
</defs>
</svg>
