<?xml version="1.0" encoding="UTF-8" standalone="no"?>
<!DOCTYPE svg PUBLIC "-//W3C//DTD SVG 1.1//EN" "http://www.w3.org/Graphics/SVG/1.1/DTD/svg11.dtd">
<svg width="100%" height="100%" viewBox="0 0 49 49" version="1.1" xmlns="http://www.w3.org/2000/svg" xmlns:xlink="http://www.w3.org/1999/xlink" xml:space="preserve" xmlns:serif="http://www.serif.com/" style="fill-rule:evenodd;clip-rule:evenodd;stroke-linejoin:round;stroke-miterlimit:2;">
    <g id="Plan-de-travail1" serif:id="Plan de travail1" transform="matrix(0.964696,0,0,0.967028,-14.3754,-10.5111)">
        <rect x="14.901" y="10.869" width="50.064" height="50.053" style="fill:none;"/>
        <g transform="matrix(1.0366,0,0,1.0341,-1.51551,-1.37105)">
            <path d="M16,36C16,22.745 26.745,12 40,12C53.255,12 64,22.745 64,36C64,49.255 53.255,60 40,60C26.745,60 16,49.255 16,36Z" style="fill:rgb(61,62,65);fill-rule:nonzero;"/>
            <path d="M49.285,44.166L45.659,40.367C46.829,38.801 47.464,36.867 47.461,34.876C47.461,33.103 46.961,31.37 46.024,29.895C45.086,28.421 43.754,27.272 42.195,26.593C40.636,25.915 38.921,25.737 37.266,26.083C35.612,26.429 34.092,27.283 32.899,28.537C31.706,29.79 30.893,31.388 30.564,33.127C30.235,34.866 30.404,36.669 31.049,38.307C31.695,39.945 32.788,41.345 34.191,42.331C35.594,43.316 37.243,43.841 38.931,43.841C40.825,43.844 42.665,43.177 44.156,41.948L47.77,45.758C47.87,45.863 47.987,45.946 48.117,46.003C48.247,46.06 48.387,46.089 48.528,46.089C48.668,46.089 48.808,46.06 48.938,46.003C49.068,45.946 49.185,45.863 49.285,45.758C49.385,45.654 49.464,45.53 49.518,45.393C49.572,45.257 49.6,45.11 49.6,44.962C49.6,44.814 49.572,44.668 49.518,44.531C49.464,44.395 49.385,44.271 49.285,44.166ZM32.533,34.876C32.533,33.546 32.908,32.246 33.611,31.14C34.314,30.035 35.313,29.173 36.482,28.664C37.651,28.155 38.938,28.022 40.179,28.281C41.42,28.541 42.56,29.181 43.455,30.122C44.349,31.062 44.959,32.26 45.206,33.564C45.452,34.869 45.326,36.221 44.842,37.449C44.357,38.678 43.537,39.728 42.485,40.467C41.433,41.206 40.196,41.6 38.931,41.6C37.234,41.6 35.606,40.892 34.407,39.631C33.207,38.37 32.533,36.659 32.533,34.876Z" style="fill:rgb(255,253,246);fill-rule:nonzero;"/>
        </g>
    </g>
</svg>
