<svg width="121" height="120" viewBox="0 0 121 120" fill="none" xmlns="http://www.w3.org/2000/svg">
<circle cx="60.5" cy="60" r="58.75" fill="white"/>
<circle cx="60.5" cy="60" r="58.75" stroke="#1A1A37" stroke-width="2.5"/>
<circle cx="60.5" cy="60" r="58.75" stroke="#C2B286" stroke-width="2.5"/>
<path d="M81.7852 53.3517L78.5873 43.7556C78.1234 42.3588 77.2311 41.1437 76.0371 40.283C74.8432 39.4223 73.4084 38.9598 71.9366 38.9611H50.6218C49.15 38.9598 47.7152 39.4223 46.5213 40.283C45.3274 41.1437 44.4351 42.3588 43.9712 43.7556L40.7732 53.3517C39.9238 53.7082 39.1983 54.3073 38.6877 55.074C38.1771 55.8408 37.904 56.7411 37.9026 57.6624V69.3507C37.9026 71.1109 38.8914 72.6281 40.3314 73.4252C40.301 73.5795 40.2403 73.7198 40.2403 73.8811V78.7013C40.2403 79.3213 40.4865 79.9159 40.9249 80.3543C41.3633 80.7927 41.9579 81.039 42.5779 81.039H44.9156C45.5356 81.039 46.1302 80.7927 46.5686 80.3543C47.0069 79.9159 47.2532 79.3213 47.2532 78.7013V74.026H75.3052V78.7013C75.3052 79.3213 75.5515 79.9159 75.9899 80.3543C76.4283 80.7927 77.0229 81.039 77.6428 81.039H79.9805C80.6005 81.039 81.1951 80.7927 81.6335 80.3543C82.0719 79.9159 82.3182 79.3213 82.3182 78.7013V73.8811C82.3182 73.7198 82.2574 73.5772 82.227 73.4252C82.9596 73.0258 83.5715 72.437 83.9988 71.7202C84.4261 71.0034 84.653 70.1851 84.6558 69.3507V57.6624C84.6558 55.7244 83.4683 54.06 81.7852 53.3517ZM42.5779 69.3507V57.6624H79.9805L79.9852 69.3507H42.5779ZM50.6218 43.6364H71.9343C72.9418 43.6364 73.8348 44.2769 74.1527 45.2353L76.7382 52.987H45.8203L48.4034 45.2353C48.5585 44.7697 48.8562 44.3646 49.2544 44.0776C49.6526 43.7906 50.131 43.6363 50.6218 43.6364Z" fill="black"/>
<path d="M48.4221 67.013C50.3587 67.013 51.9286 65.4431 51.9286 63.5065C51.9286 61.5699 50.3587 60 48.4221 60C46.4855 60 44.9156 61.5699 44.9156 63.5065C44.9156 65.4431 46.4855 67.013 48.4221 67.013Z" fill="black"/>
<path d="M74.1364 67.013C76.0729 67.013 77.6428 65.4431 77.6428 63.5065C77.6428 61.5699 76.0729 60 74.1364 60C72.1998 60 70.6299 61.5699 70.6299 63.5065C70.6299 65.4431 72.1998 67.013 74.1364 67.013Z" fill="black"/>
</svg>
