<svg width="29" height="29" viewBox="0 0 29 29" fill="none" xmlns="http://www.w3.org/2000/svg">
<path d="M14.4998 0.0625C6.5269 0.0625 0.0622559 6.52715 0.0622559 14.5C0.0622559 22.4729 6.5269 28.9375 14.4998 28.9375C22.4726 28.9375 28.9373 22.4729 28.9373 14.5C28.9373 6.52715 22.4726 0.0625 14.4998 0.0625ZM21.4381 10.9454C21.4478 11.0969 21.4478 11.2548 21.4478 11.4095C21.4478 16.1403 17.8449 21.5898 11.261 21.5898C9.23071 21.5898 7.34868 21.0001 5.76313 19.985C6.05317 20.0172 6.33032 20.0301 6.62681 20.0301C8.30259 20.0301 9.84302 19.4629 11.0708 18.5025C9.49819 18.4703 8.1769 17.4391 7.72573 16.0211C8.27681 16.1017 8.7731 16.1017 9.34028 15.9566C8.53051 15.7921 7.80267 15.3523 7.28041 14.712C6.75815 14.0717 6.47369 13.2703 6.47534 12.4439V12.3988C6.94907 12.6663 7.50659 12.8307 8.08989 12.8532C7.59954 12.5264 7.1974 12.0837 6.91914 11.5643C6.64087 11.0448 6.49508 10.4648 6.49468 9.87549C6.49468 9.2084 6.6687 8.59932 6.9813 8.0708C7.88011 9.17726 9.00168 10.0822 10.2731 10.7268C11.5446 11.3714 12.9374 11.7413 14.3612 11.8123C13.8552 9.3792 15.6728 7.41016 17.8578 7.41016C18.889 7.41016 19.8171 7.84199 20.4713 8.53809C21.2802 8.38662 22.0537 8.08369 22.7433 7.67764C22.4758 8.50586 21.9151 9.20518 21.1707 9.64668C21.8925 9.56934 22.5886 9.36953 23.2332 9.08916C22.7465 9.80459 22.1375 10.4395 21.4381 10.9454Z" fill="#3D3E41"/>
</svg>
