<svg width="40" height="40" viewBox="0 0 40 40" fill="none" xmlns="http://www.w3.org/2000/svg">
<circle cx="20" cy="20" r="20" fill="#C4C4C4"/>
<path d="M34.8464 32.2593C32.7141 28.5317 29.2994 25.736 25.2589 24.4096C27.1946 23.2406 28.6986 21.4589 29.54 19.3382C30.3814 17.2175 30.5136 14.8751 29.9164 12.6708C29.3191 10.4665 28.0254 8.52207 26.234 7.1363C24.4425 5.75052 22.2524 5 20 5C17.7476 5 15.5575 5.75052 13.766 7.1363C11.9746 8.52207 10.6809 10.4665 10.0836 12.6708C9.48635 14.8751 9.61858 17.2175 10.46 19.3382C11.3014 21.4589 12.8054 23.2406 14.7411 24.4096C10.7007 25.7359 7.28595 28.5316 5.15362 32.259C5.07847 32.3908 5.02964 32.5364 5.00991 32.6874C4.99019 32.8384 4.99996 32.9919 5.03867 33.139C5.07738 33.2862 5.14427 33.4242 5.23553 33.5451C5.32678 33.6661 5.4406 33.7676 5.5705 33.8438C5.7004 33.9201 5.84383 33.9697 5.99261 33.9897C6.14138 34.0097 6.29258 33.9998 6.43757 33.9605C6.58257 33.9212 6.71852 33.8533 6.83766 33.7607C6.95681 33.6681 7.05681 33.5526 7.13197 33.4207C8.43652 31.1285 10.3124 29.2252 12.5712 27.9019C14.83 26.5786 17.3921 25.882 20.0001 25.882C22.6082 25.882 25.1703 26.5787 27.429 27.9021C29.6878 29.2254 31.5637 31.1288 32.8682 33.421C32.9433 33.5528 33.0433 33.6684 33.1625 33.761C33.2816 33.8536 33.4175 33.9215 33.5625 33.9608C33.7075 34 33.8587 34.01 34.0075 33.9899C34.1562 33.9699 34.2997 33.9203 34.4296 33.8441C34.5594 33.7678 34.6733 33.6663 34.7645 33.5454C34.8558 33.4244 34.9226 33.2864 34.9613 33.1393C35 32.9921 35.0098 32.8387 34.9901 32.6877C34.9704 32.5367 34.9215 32.3911 34.8464 32.2593ZM12.0008 15.4433C12.0008 13.8375 12.47 12.2678 13.3489 10.9326C14.2279 9.59743 15.4772 8.55679 16.9388 7.94228C18.4004 7.32777 20.0088 7.16698 21.5605 7.48026C23.1121 7.79353 24.5374 8.5668 25.6561 9.70226C26.7748 10.8377 27.5367 12.2844 27.8453 13.8593C28.154 15.4343 27.9955 17.0667 27.3901 18.5503C26.7847 20.0339 25.7594 21.3019 24.444 22.194C23.1285 23.0861 21.582 23.5623 19.9999 23.5623C17.8792 23.5599 15.846 22.7037 14.3464 21.1816C12.8468 19.6595 12.0033 17.5958 12.0008 15.4433V15.4433Z" fill="black"/>
</svg>
