<svg width="120" height="120" viewBox="0 0 120 120" fill="none" xmlns="http://www.w3.org/2000/svg">
<circle cx="60" cy="60" r="58.75" fill="white"/>
<circle cx="60" cy="60" r="58.75" stroke="#1A1A37" stroke-width="2.5"/>
<circle cx="60" cy="60" r="58.75" stroke="#C2B286" stroke-width="2.5"/>
<path fill-rule="evenodd" clip-rule="evenodd" d="M62.4193 32.111C64.06 30.1421 67.2586 31.488 66.9979 34.0376L65.1658 51.9513H79.9956C82.1972 51.9513 83.4001 54.5192 81.9905 56.2105L56.022 87.3727C54.3813 89.3416 51.1829 87.9957 51.4436 85.4461L53.2757 67.5325H38.4459C36.2442 67.5325 35.0415 64.9645 36.451 63.2732L62.4193 32.111ZM43.9903 62.3388H57.8772C58.4927 62.3388 58.9733 62.8709 58.9107 63.483L57.4755 77.5159L74.4511 57.1452H60.5642C59.9487 57.1452 59.468 56.6128 59.5309 56.0007L60.9659 41.968L43.9903 62.3388Z" fill="black"/>
</svg>
